# xmcd
#
# Track frame offsets:
#	150
#	14175
#	21805
#	32460
#	41900
#	52305
#	63530
#	74244
#	89019
#	104950
#	111925
#	116410
#	120100
#	123625
#	129853
#	137803
#	142493
#	153184
#	167169
#
# Disc length: 2331 seconds
#
# Revision: 1
# Processed by: cddbd v1.4PL0 Copyright (c) Steve Scherf et al.
# Submitted via: EasyCDDAExtractor 5.0.6
#
DISCID=2c091913
DTITLE=Various Artist - The Rat Pack
DYEAR=2000
DGENRE=Blues
TTITLE0=I Left My Heart In San Fansisco - Dean Martin
TTITLE1=I'm Gonna Sit Right Down And Write Myself A Letter - Dean Martin
TTITLE2=Volare - On A Evening In Roma - Dean Martin
TTITLE3=Chicago - Frank Sinatra
TTITLE4=When Your Lover Has Gone - Frank Sinatra
TTITLE5=Please Be Kind - Frank Sinatra
TTITLE6=You're Nobody 'Till Somebody Loves You - Frank Sinatra
TTITLE7=What Kind Of Fool Am I - Sammy Davis Jr
TTITLE8=Out Of This World - Sammy Davis Jr
TTITLE9=Hey There - Sammy Davis Jr
TTITLE10=I Can't Give You Anything But Love - Dean Martin
TTITLE11=Too Marvellous For Words - Frank Sinatra
TTITLE12=Pennies From Heaven - Dean Martin
TTITLE13=A Foggy Day In London - Frank Sinatra
TTITLE14=The Lady Is A Tramp - Frank Sinatra
TTITLE15=Various Artist - Where Or When - Dean Martin
TTITLE16=Me And My Shadow - Frank Sinatra and Sammy Davis Jr
TTITLE17=Sam's Song - Dean Martin and Sammy Davis Jr
TTITLE18=Birth Of The Blues - Sinatra, Martin and Davis Jr
EXTD=
EXTT0=
EXTT1=
EXTT2=
EXTT3=
EXTT4=
EXTT5=
EXTT6=
EXTT7=
EXTT8=
EXTT9=
EXTT10=
EXTT11=
EXTT12=
EXTT13=
EXTT14=
EXTT15=
EXTT16=
EXTT17=
EXTT18=
PLAYORDER=
